<svg width="40" height="40" viewBox="0 0 40 40" fill="none" xmlns="http://www.w3.org/2000/svg">
<path fill-rule="evenodd" clip-rule="evenodd" d="M32.0667 28.8071H25.2C24.611 28.8071 24.1334 28.3295 24.1334 27.7404C24.1334 27.1513 24.1334 22.4 24.1334 22.4H30.3938C30.687 22.4 30.9372 22.1881 30.9856 21.899L31.4095 19.3657C31.4707 18.9999 31.1886 18.6667 30.8177 18.6667H20.4C20.4 18.6667 20.4 25.0894 20.4 27.7404C20.4 30.3914 22.549 32.5404 25.2 32.5404H28.9334V35.3167C27.0862 36.0184 25.5055 36.2667 23.4687 36.2667C18.1509 36.2667 15.2586 33.4809 15.0761 28.2737C15.0213 26.7106 15.0667 25.6048 15.0667 18.6667H7.02409C6.73096 18.6667 6.48069 18.8785 6.43236 19.1677L6.00836 21.701C5.94722 22.0668 6.22922 22.4 6.60016 22.4H11.3334L11.3419 28.2737C11.4438 31.7699 12.5514 34.7127 14.562 36.7394C16.6782 38.8725 19.7581 40 23.4687 40C26.595 40 28.9638 39.4833 32.0547 38.0379C32.4288 37.8629 32.6667 37.4859 32.6667 37.0729V29.4071C32.6667 29.0757 32.3981 28.8071 32.0667 28.8071Z" fill="#0085FF"/>
<path fill-rule="evenodd" clip-rule="evenodd" d="M7.8497 14.9333H15.0667V6.92265L20.4 5.03405V14.9333H31.6426C31.9358 14.9333 32.186 14.7214 32.2344 14.4323L32.6583 11.899C32.7195 11.5332 32.4374 11.2 32.0665 11.2H24.1334V0.600448C24.1334 0.186248 23.7236 -0.103352 23.333 0.0349147L11.733 4.14265C11.4935 4.22751 11.3334 4.45411 11.3334 4.70825V11.2H8.27363C7.9805 11.2 7.73023 11.4118 7.68183 11.701L7.25797 14.2343C7.1967 14.6001 7.47877 14.9333 7.8497 14.9333Z" fill="#0085FF"/>
</svg>
